<?xml version="1.0" encoding="UTF-8" standalone="no"?>
<!DOCTYPE svg PUBLIC "-//W3C//DTD SVG 1.1//EN" "http://www.w3.org/Graphics/SVG/1.1/DTD/svg11.dtd">
<svg width="100%" height="100%" viewBox="0 0 1452 1000" version="1.1" xmlns="http://www.w3.org/2000/svg" xmlns:xlink="http://www.w3.org/1999/xlink" xml:space="preserve" xmlns:serif="http://www.serif.com/" style="fill-rule:evenodd;clip-rule:evenodd;stroke-miterlimit:10;">
    <g transform="matrix(0.912221,0,0,0.912221,-486.856,-1616.45)">
        <g transform="matrix(0.750177,0,0,0.760106,599.281,2081.79)">
            <g transform="matrix(1,0,0,1,147.526,463.683)">
                <path d="M0,-55.856L99.822,-55.856C114.769,-55.856 122.338,-44.112 117.023,-29.167L109.622,-8.349C104.496,6.067 88.386,18.344 73.438,18.344L-101.119,18.344L-147.526,88.807L49.986,88.807C102.833,88.807 161.446,45.567 180.237,-7.28L188.589,-30.769C191.12,-37.885 192.777,-44.818 193.668,-51.505L-64.204,-144.663C-78.04,-95.187 -50.397,-55.856 0,-55.856" style="fill:white;fill-rule:nonzero;"/>
            </g>
            <g transform="matrix(1,0,0,1,706.96,271.395)">
                <path d="M0,-22.2C-3.124,-55.721 -28.477,-79.23 -67.433,-79.23L-247.862,-79.23L-296.313,57.03L-198.392,-64.993L0,-22.2Z" style="fill:white;fill-rule:nonzero;"/>
            </g>
            <g transform="matrix(1,0,0,1,629.879,484.843)">
                <path d="M0,-194.988L-58.839,-29.509C-63.965,-15.093 -80.075,-2.816 -95.021,-2.816L-238.082,-2.816L-190.857,-38.049L-125.563,-221.679L-17.199,-221.679C-2.253,-221.679 5.315,-209.935 0,-194.988M-233.787,-115.483L-298.903,67.647L-118.474,67.647C-65.627,67.647 -7.011,24.407 11.78,-28.44L71.569,-196.59C74.573,-205.038 76.372,-213.236 77.08,-221.055L-115.702,-262.635L-233.787,-115.483Z" style="fill:white;fill-rule:nonzero;"/>
            </g>
            <g transform="matrix(1,0,0,1,752.17,540.363)">
                <path d="M0,-252.11L-93.956,12.127L-23.492,12.127L60.839,-225.044L5.11,-264.237C3.189,-260.261 1.461,-256.219 0,-252.11" style="fill:white;fill-rule:nonzero;"/>
            </g>
            <g transform="matrix(1,0,0,1,895.208,552.49)">
                <path d="M0,-179.36L-54.711,-179.36L-101.31,-108.364L24.139,-108.364L-14.393,0L56.604,0L104.959,-135.992L80.781,-122.547L0,-179.36Z" style="fill:white;fill-rule:nonzero;"/>
            </g>
            <g transform="matrix(1,0,0,1,1090.08,271.806)">
                <path d="M0,280.684L70.463,280.684L170.267,0L82.436,48.845L0,280.684Z" style="fill:white;fill-rule:nonzero;"/>
            </g>
            <g transform="matrix(1,0,0,1,1366.98,200.02)">
                <path d="M0,63.143L22.452,0L-91.089,63.143L0,63.143Z" style="fill:white;fill-rule:nonzero;"/>
            </g>
            <g transform="matrix(1,0,0,1,174.607,331.487)">
                <path d="M0,5.34L-14.782,0C-11.484,3.349 -6.668,5.34 -0.769,5.34L0,5.34Z" style="fill:white;fill-rule:nonzero;"/>
            </g>
            <g transform="matrix(1,0,0,1,1260.35,263.163)">
                <path d="M0,8.643L15.542,0L3.073,0L0,8.643Z" style="fill:rgb(198,207,213);fill-rule:nonzero;"/>
            </g>
            <g transform="matrix(1,0,0,1,156.637,213.513)">
                <path d="M0,96.626L7.212,76.341C12.527,61.394 28.98,49.65 43.395,49.65L191.793,49.65L238.393,-21.348L67.572,-21.348C14.724,-21.348 -43.889,21.891 -62.681,74.739L-68.806,91.966L3.188,117.974C-1.571,113.141 -3.14,105.455 0,96.626" style="fill:white;fill-rule:nonzero;"/>
            </g>
            <g transform="matrix(1,0,0,1,274.196,397.249)">
                <path d="M0,-60.422L-99.589,-60.422L67.67,0C65.988,-35.317 40.257,-60.422 0,-60.422" style="fill:white;fill-rule:nonzero;"/>
            </g>
            <g transform="matrix(1,0,0,1,822.063,315.438)">
                <path d="M0,-25.583C5.315,-40.53 21.768,-52.274 36.181,-52.274L134.936,-52.274C149.884,-52.274 157.453,-40.53 152.138,-25.583L122.527,57.692L97.941,57.692L154.813,97.689L185.337,80.714L223.704,-27.185C242.495,-80.034 214.632,-123.272 161.783,-123.272L60.36,-123.272C16.044,-123.272 -32.314,-92.861 -57.858,-51.88L-4.094,-14.069L0,-25.583Z" style="fill:white;fill-rule:nonzero;"/>
            </g>
            <g transform="matrix(1,0,0,1,1114.64,300.305)">
                <path d="M0,-108.14L-25.245,-37.142L113.546,-37.142L65.789,-1.911L65.11,0L259.562,-108.14L0,-108.14Z" style="fill:white;fill-rule:nonzero;"/>
            </g>
            <g transform="matrix(-0.33501,0.942215,0.942215,0.33501,916.575,303.536)">
                <path d="M30.992,-93.634L45.797,-93.634L72.73,3.182L64.423,26.546L30.992,-93.634Z" style="fill:rgb(198,207,213);fill-rule:nonzero;"/>
            </g>
            <g transform="matrix(1,0,0,1,352.372,345.31)">
                <path d="M0,55.735L-10.507,51.939C-10.278,56.74 -10.493,61.727 -11.179,66.868L4.744,72.62L43.72,24.05L58.274,-16.885L0,55.735Z" style="fill:rgb(198,207,213);fill-rule:nonzero;"/>
            </g>
            <g transform="matrix(-0.335019,0.942211,0.942211,0.335019,1082.05,267.967)">
                <path d="M145.786,-27.389L167.379,-27.389L19.331,102.89L-2.263,102.891L145.786,-27.389Z" style="fill:rgb(198,207,213);fill-rule:nonzero;"/>
            </g>
            <g transform="matrix(1,0,0,1,760.074,264.669)">
                <path d="M0,-4.017L-53.114,-15.474C-52.677,-10.79 -52.659,-5.919 -53.115,-0.881L-5.837,9.316L-2.793,11.457C-0.726,7.176 1.583,2.979 4.132,-1.111L0,-4.017Z" style="fill:rgb(198,207,213);fill-rule:nonzero;"/>
            </g>
            <g transform="matrix(1,0,0,1,1445.26,200.021)">
                <path d="M0,-47.371L-71.057,-7.855L-53.037,-7.855L-55.83,0L6.931,-34.902L0,-47.371Z" style="fill:rgb(198,207,213);fill-rule:nonzero;"/>
            </g>
            <g transform="matrix(1,0,0,1,341.866,320.408)">
                <path d="M0,76.841L-167.259,16.419L-168.027,16.419C-173.927,16.419 -178.743,14.428 -182.041,11.079L-254.035,-14.929L-256.261,-8.669C-257.133,-6.217 -257.871,-3.795 -258.544,-1.388L-0.672,91.77C0.014,86.629 0.229,81.642 0,76.841" style="fill:rgb(198,207,213);fill-rule:nonzero;"/>
            </g>
            <g transform="matrix(1,0,0,1,706.96,326.567)">
                <path d="M0,-77.372L-198.392,-120.165L-296.313,1.858L-310.868,42.793L-192.783,-104.36L-0.001,-62.78C0.455,-67.818 0.437,-72.689 0,-77.372" style="fill:rgb(198,207,213);fill-rule:nonzero;"/>
            </g>
            <g transform="matrix(-0.727591,0.686012,0.686012,0.727591,822.419,292.203)">
                <path d="M22.705,-60.778C27.365,-59.551 31.924,-58.081 36.365,-56.384L22.705,10.364L9.526,3.617L22.705,-60.778Z" style="fill:rgb(198,207,213);fill-rule:nonzero;"/>
            </g>
            <g transform="matrix(1,0,0,1,976.877,389.944)">
                <path d="M0,23.183L-56.872,-16.815L-81.669,-16.815L-0.888,39.998L23.29,26.553L30.524,6.208L0,23.183Z" style="fill:rgb(198,207,213);fill-rule:nonzero;"/>
            </g>
            <g transform="matrix(1,0,0,1,1374.2,320.65)">
                <path d="M0,-128.485L-194.453,-20.345L-201.687,0L-113.856,-48.844L-110.783,-57.487L-98.314,-57.487L15.227,-120.63L18.02,-128.485L0,-128.485Z" style="fill:rgb(198,207,213);fill-rule:nonzero;"/>
            </g>
            <g transform="matrix(1,0,0,1,1888.34,569.539)">
                <path d="M0,-446.563L8.06,-419.208L-26.5,-400.234L-72.864,-344.81L-125.078,-308.61L-154.145,-309.68L-186.279,-352.015L-272.125,-287.46L-195.089,-227.757L-173.975,-191.414L-184.746,-155.713L-332.542,-71.757L-336.858,-55.994L-323.769,-7.382L-327.371,10.415L-341.78,6.635L-389.036,-54.496L-397.596,-80.745L-374.449,-99.505L-347.95,-98.471L-307.612,-147.546L-268.559,-179.502L-330.367,-200.081L-428.696,-109.277L-435.008,-90.767L-470.174,-77.464L-589.938,26.464L-611.872,57.6L-625.853,97.082L-621.787,122.475L-629.562,123.188L-652.459,107.353L-649.82,47.008L-656.489,4.53L-633.521,-14.372L-603.598,-8.131L-550.813,-92.515L-474.525,-153.252L-409.223,-313.033L-287.461,-443.674L-319.346,-447.99L-352.372,-464.681L-424.666,-405.227L-445.53,-377.052L-467.428,-370.025L-477.093,-383.614L-473.598,-415.463L-436.863,-431.156L-365.854,-514.077L-274.943,-509.441L-217.879,-489.04L-189.774,-502.914C-189.774,-502.914 -195.053,-530.412 -192.057,-538.9C-189.026,-547.46 -175.83,-561.976 -167.555,-565.72C-158.532,-569.751 -137.418,-569.287 -127.967,-566.291C-120.121,-563.83 -105.177,-554.201 -101.325,-546.925C-97.009,-538.864 -99.934,-510.368 -99.934,-510.368L-100.362,-479.482C-100.362,-479.482 -103.251,-455.765 -108.422,-450.236C-109.956,-448.596 -114.378,-447.098 -118.159,-446.063C-121.761,-445.065 -125.506,-444.709 -129.251,-444.958L-150.329,-446.42L-156.035,-435.578L-132.889,-399.699L-125.078,-370.917L-42.014,-417.888L-34.881,-442.782L-18.938,-459.438L0,-446.563Z" style="fill:rgb(198,207,213);fill-rule:nonzero;"/>
            </g>
            <g transform="matrix(1,0,0,1,1547.95,232.992)">
                <path d="M0,-151.079L142.191,-119.086L200.845,0" style="fill:none;fill-rule:nonzero;stroke:rgb(26,125,193);stroke-width:3.29px;"/>
            </g>
            <g transform="matrix(1,0,0,1,1690.14,496.047)">
                <path d="M0,-382.14L-149.301,-209.733L-12.442,-101.312L-156.411,0" style="fill:none;fill-rule:nonzero;stroke:rgb(26,125,193);stroke-width:3.29px;"/>
            </g>
            <g transform="matrix(1,0,0,1,1260.01,286.313)">
                <path d="M0,314.599L159.965,170.63L280.828,0" style="fill:none;fill-rule:nonzero;stroke:rgb(26,125,193);stroke-width:3.29px;"/>
            </g>
            <g transform="matrix(0,1,1,0,1665.26,357.409)">
                <path d="M30.216,-30.215C13.528,-30.215 0,-16.687 0,0C0,16.688 13.528,30.216 30.216,30.216C46.903,30.216 60.431,16.688 60.431,0C60.431,-16.687 46.903,-30.215 30.216,-30.215" style="fill:rgb(24,125,194);fill-rule:nonzero;"/>
            </g>
            <g transform="matrix(0,1,1,0,1419.98,432.06)">
                <path d="M24.884,-24.883C11.141,-24.883 0,-13.742 0,0C0,13.743 11.141,24.884 24.884,24.884C38.627,24.884 49.767,13.743 49.767,0C49.767,-13.742 38.627,-24.883 24.884,-24.883" style="fill:rgb(24,125,194);fill-rule:nonzero;"/>
            </g>
            <g transform="matrix(0,1,1,0,1748.8,213.441)">
                <path d="M19.552,-19.552C8.754,-19.552 0,-10.799 0,0C0,10.798 8.754,19.552 19.552,19.552C30.35,19.552 39.103,10.798 39.103,0C39.103,-10.799 30.35,-19.552 19.552,-19.552" style="fill:rgb(24,125,194);fill-rule:nonzero;"/>
            </g>
            <g transform="matrix(0,1,1,0,1531.95,65.9169)">
                <path d="M15.996,-15.996C7.162,-15.996 -0.001,-8.835 -0.001,0.001C-0.001,8.835 7.162,15.996 15.996,15.996C24.831,15.996 31.993,8.835 31.993,0.001C31.993,-8.835 24.831,-15.996 15.996,-15.996" style="fill:rgb(24,125,194);fill-rule:nonzero;"/>
            </g>
            <g transform="matrix(0,-1,-1,0,1260.01,584.056)">
                <path d="M-16.856,-16.856C-7.546,-16.856 0,-9.309 0,0C0,9.31 -7.546,16.856 -16.856,16.856C-26.166,16.856 -33.712,9.31 -33.712,0C-33.712,-9.309 -26.166,-16.856 -16.856,-16.856" style="fill:rgb(24,125,194);fill-rule:nonzero;"/>
            </g>
            <g transform="matrix(0,1,1,0,1527.24,486.277)">
                <path d="M16.858,-16.859C7.547,-16.859 0,-9.311 0,-0.001C0,9.31 7.547,16.858 16.858,16.858C26.169,16.858 33.717,9.31 33.717,-0.001C33.717,-9.311 26.169,-16.859 16.858,-16.859" style="fill:rgb(24,125,194);fill-rule:nonzero;"/>
            </g>
        </g>
        <g transform="matrix(0.302554,0,0,0.302554,2002.61,2237.21)">
            <g transform="matrix(1,0,0,1,44.4001,101.6)">
                <path d="M0,-83.6C-5.7,-83.6 -10.3,-82.4 -14,-80.1C-17.6,-77.8 -19.4,-74.3 -19.4,-69.6C-19.4,-64.9 -17.6,-61.3 -14,-58.9C-10.4,-56.4 -2.6,-53.8 9.2,-50.9C21,-48 29.9,-44 35.9,-38.8C41.9,-33.6 44.9,-26 44.9,-15.9C44.9,-5.8 41.1,2.3 33.5,8.6C25.9,14.9 15.9,18 3.6,18C-14.5,18 -30.5,11.8 -44.4,-0.7L-32.2,-15.4C-20.5,-5.3 -8.4,-0.2 4.1,-0.2C10.4,-0.2 15.4,-1.5 19,-4.2C22.7,-6.9 24.5,-10.5 24.5,-14.9C24.5,-19.3 22.8,-22.8 19.3,-25.3C15.8,-27.8 9.9,-30 1.4,-32.1C-7.1,-34.1 -13.5,-36 -17.9,-37.7C-22.3,-39.4 -26.2,-41.6 -29.6,-44.4C-36.4,-49.6 -39.8,-57.5 -39.8,-68.2C-39.8,-78.9 -35.9,-87.1 -28.2,-92.9C-20.4,-98.7 -10.8,-101.6 0.6,-101.6C8,-101.6 15.3,-100.4 22.6,-98C29.9,-95.6 36.1,-92.2 41.4,-87.8L31,-73.1C27.6,-76.2 23,-78.7 17.1,-80.7C11.4,-82.6 5.7,-83.6 0,-83.6" style="fill:white;fill-rule:nonzero;"/>
            </g>
            <g transform="matrix(1,0,0,1,133,2.7998)">
                <path d="M0,115.4L-19.5,115.4L-19.5,0L10.9,0L45.7,72.5L80.5,0L110.8,0L110.8,115.4L91.3,115.4L91.3,25.3L51,105.4L40.1,105.4L0,25.3L0,115.4Z" style="fill:white;fill-rule:nonzero;"/>
            </g>
        </g>
    </g>
</svg>
